<svg width="488" height="155" viewBox="0 0 488 155" fill="none" xmlns="http://www.w3.org/2000/svg">
<path d="M15.0391 141C12.7604 141 11.6211 139.747 11.6211 137.24V46.7324C11.6211 44.2259 12.7604 42.9727 15.0391 42.9727H29.5996C31.3314 42.9727 32.6302 44.3398 33.4961 47.0742L53.0469 108.393C55.0521 114.682 56.237 118.487 56.6016 119.809C56.9661 121.085 57.4902 123.454 58.1738 126.918H58.584C59.2676 123.454 59.7917 121.085 60.1562 119.809C60.5208 118.487 61.7057 114.682 63.7109 108.393L83.2617 47.0742C84.1276 44.3398 85.4264 42.9727 87.1582 42.9727H101.719C103.997 42.9727 105.137 44.2259 105.137 46.7324V137.24C105.137 139.747 103.997 141 101.719 141H95.4297C93.151 141 92.0117 139.747 92.0117 137.24V65.5312C92.0117 63.7083 92.0573 61.8854 92.1484 60.0625H91.875L66.6504 136.83C65.7389 139.61 64.235 141 62.1387 141H54.6191C52.5228 141 51.0189 139.61 50.1074 136.83L24.8828 60.0625H24.6094C24.7005 61.8854 24.7461 63.7083 24.7461 65.5312V137.24C24.7461 139.747 23.6068 141 21.3281 141H15.0391Z" fill="black"/>
<path d="M338.039 141C335.76 141 334.621 139.747 334.621 137.24V46.7324C334.621 44.2259 335.76 42.9727 338.039 42.9727H363.264C382.587 42.9727 396.008 47.2565 403.527 55.8242C411.092 64.3464 414.875 76.3548 414.875 91.8496C414.875 107.344 411.092 119.421 403.527 128.08C396.008 136.693 382.587 141 363.264 141H338.039ZM347.746 129.789H362.648C377.688 129.789 387.805 126.599 393 120.219C398.241 113.839 400.861 104.382 400.861 91.8496C400.861 79.3171 398.241 69.8835 393 63.5488C387.805 57.2142 377.688 54.0469 362.648 54.0469H347.746V129.789Z" fill="black"/>
<ellipse cx="169" cy="89.5" rx="47" ry="51.5" fill="black"/>
<path d="M205 90C205 112.091 188.882 130 169 130C149.118 130 133 112.091 133 90C133 67.9086 149.118 50 169 50C188.882 50 205 67.9086 205 90Z" fill="white"/>
<ellipse cx="183" cy="90" rx="32" ry="33" transform="rotate(90 183 90)" fill="black"/>
<ellipse cx="271" cy="89.5" rx="47" ry="51.5" fill="black"/>
<path d="M307 90C307 112.091 290.882 130 271 130C251.118 130 235 112.091 235 90C235 67.9086 251.118 50 271 50C290.882 50 307 67.9086 307 90Z" fill="white"/>
<ellipse cx="285" cy="90" rx="32" ry="33" transform="rotate(90 285 90)" fill="black"/>
</svg>
